<svg id="Capa_1" enable-background="new 0 0 512 512" height="512" viewBox="0 0 512 512" width="512" xmlns="http://www.w3.org/2000/svg"><g><g><g><path d="m169.094 451.385h-65.586c-7.1 16.285-11.053 34.244-11.053 53.115h55.475l21.164-21.164z" fill="#ffcbbe"/><path d="m348.14 451.385h-65.585v31.968l21.147 21.147h55.492c-.001-18.87-3.954-36.83-11.054-53.115z" fill="#ffddcf"/></g><g><path d="m254.958 374.349h-32.354l-51.936 51.936v78.215h133.033v-20.907c15.849-9.436 31.201-20.572 44.438-32.209-16.701-38.302-50.992-67.592-93.181-77.035z" fill="#70dcba"/><path d="m225.823 371.13c-54.311 0-101.598 32.743-122.314 80.256 13.232 11.632 28.579 22.765 44.422 32.198v20.916h22.738c.065-57.952 34.645-107.818 84.29-130.151-9.42-2.108-19.184-3.219-29.136-3.219z" fill="#30cd9c"/></g><g><path d="m65.958 185.652h-18.712c-21.951 0-39.746 17.795-39.746 39.746v55.078c0 21.951 17.795 39.746 39.746 39.746h18.712c21.951 0 39.746-17.795 39.746-39.746v-55.078c0-20.291-15.205-37.031-34.843-39.446-1.607-.198-3.243-.3-4.903-.3z" fill="#4c5699"/><path d="m385.69 185.652h18.712c21.951 0 39.746 17.795 39.746 39.746v55.078c0 21.951-17.795 39.746-39.746 39.746h-18.712c-21.951 0-39.746-17.795-39.746-39.746v-55.078c0-20.291 15.205-37.031 34.843-39.446 1.607-.198 3.243-.3 4.903-.3z" fill="#676fb2"/></g><g><path d="m380.788 185.952h-277.28v129.104l118.808 68.015h30.004c6.236-1.042 12.35-2.445 18.32-4.186 66.476-19.378 115.05-80.756 115.05-153.487 0-13.613-1.7-26.829-4.902-39.446z" fill="#ffddcf"/><path d="m118.952 225.398c0-13.613 1.702-26.829 4.904-39.446h-52.996c-3.202 12.617-4.902 25.833-4.902 39.446 0 88.29 71.576 159.865 159.865 159.865 9.028 0 17.878-.754 26.498-2.192-75.678-12.626-133.369-78.411-133.369-157.673z" fill="#ffcbbe"/></g><g><g><path d="m243.011 106.622-41.724 41.724-13.819 13.819 25.689 25.689c4.212-.367 8.437-.573 12.667-.576 29.524-.017 59.208 8.876 85.208 27.084 13.6 9.523 32.044 8.064 43.977-3.478l25.778-24.932z" fill="#b28ae4"/><path d="m207.249 174.558c-3.818-3.818-5.963-8.996-5.963-14.395v-11.817l-23.793-23.793-106.633 61.399 25.778 24.932c11.934 11.543 30.377 13.001 43.977 3.478 21.957-15.377 46.981-24.28 72.541-26.508-.269-4.998-2.35-9.739-5.907-13.296z" fill="#976bcf"/></g><g><path d="m356.697 88.069c-7.299-29.657-29.56-53.317-58.669-62.355l-11.619-3.607h-85.123v126.239c8.01-.477 16.182-.685 24.538-.593 59.141-.646 109.318 13.173 154.964 38.199-2.757-11.2-21.662-88.015-24.091-97.883z" fill="#70dcba"/><path d="m274.791 25.714 11.618-3.607-34.502-10.712c-8.493-2.638-17.091-3.895-26.083-3.895-8.792 0-17.589 1.257-26.083 3.894l-46.121 14.32c-29.109 9.038-51.37 32.697-58.669 62.355-2.436 9.899-21.327 86.653-24.091 97.883 39.197-21.49 81.741-34.706 130.426-37.606 6.209-25.226 13.396-54.427 14.835-60.277 7.301-29.658 29.562-53.317 58.67-62.355z" fill="#30cd9c"/></g></g></g><g><path d="m503.575 468.757-14.256-53.204c-4.058-15.146-19.627-24.135-34.773-20.076-4.686 1.256-8.781 3.615-12.084 6.721h-24.57l-38.357 38.357 38.357 38.357h29.617l1.217 4.543c3.438 12.831 15.134 21.046 27.839 21.046 14.981 0 27.936-13.403 27.936-28.489-.001-2.39-.274-4.824-.926-7.255z" fill="#efedff"/><path d="m417.891 402.197h-24.521c-3.303-3.106-7.398-5.466-12.084-6.721-15.146-4.058-30.715 4.93-34.773 20.076l-14.256 53.204c-4.767 17.792 8.56 35.743 26.937 35.743 12.734 0 24.468-8.191 27.913-21.046l1.217-4.543h29.568c-21.185-21.183-21.185-55.529-.001-76.713z" fill="#d4d4ff"/></g><circle cx="451.625" cy="440.554" fill="#b28ae4" r="15"/><g><ellipse cx="146.268" cy="280.974" fill="#ff8e9e" rx="29.355" ry="23.377"/><ellipse cx="305.381" cy="280.974" fill="#ff8e9e" rx="29.355" ry="23.377"/><ellipse cx="225.824" cy="265.614" fill="#4c5699" rx="20.332" ry="24.792"/></g><g><path d="m177.143 238.355-24.064-6.448c-3.997-1.067-8.114 1.302-9.186 5.303s1.302 8.114 5.303 9.186l7.078 1.897c-.252.75-.395 1.551-.395 2.387v10.366c0 4.142 3.358 7.5 7.5 7.5s7.5-3.358 7.5-7.5v-8.839l2.381.638c4.011 1.072 8.115-1.309 9.186-5.303 1.072-4.002-1.302-8.115-5.303-9.187z"/><path d="m278.395 252.844 2.381-.638v8.839c0 4.142 3.358 7.5 7.5 7.5s7.5-3.358 7.5-7.5v-10.366c0-.835-.142-1.636-.395-2.387l7.078-1.897c4.001-1.072 6.375-5.185 5.304-9.186-1.072-4.001-5.186-6.373-9.186-5.304l-24.065 6.448c-4.001 1.072-6.375 5.185-5.303 9.186 1.072 3.999 5.179 6.377 9.186 5.305z"/><path d="m253.656 265.614c0-17.806-12.485-32.292-27.832-32.292s-27.833 14.486-27.833 32.292 12.486 32.292 27.833 32.292 27.832-14.486 27.832-32.292zm-40.664 0c0-9.373 5.876-17.292 12.833-17.292 6.956 0 12.832 7.918 12.832 17.292s-5.876 17.292-12.832 17.292c-6.957 0-12.833-7.919-12.833-17.292z"/><path d="m510.814 466.814c0-.001 0-.001 0 0l-14.257-53.204c-6.672-24.911-36.642-34.824-56.872-18.914h-43.549c-20.325-15.983-50.248-5.814-56.873 18.914l-1.483 5.533c-2.985-3.908-6.165-7.67-9.539-11.248-2.841-3.013-7.588-3.152-10.602-.31-3.013 2.842-3.152 7.588-.31 10.602 5.769 6.116 10.925 12.813 15.365 19.936l-5.53 20.637c-5.208 3.935-10.542 7.709-15.964 11.281v-16.987c0-4.142-3.358-7.5-7.5-7.5s-7.5 3.358-7.5 7.5v43.946h-140.77v-43.946c0-4.142-3.358-7.5-7.5-7.5s-7.5 3.358-7.5 7.5v16.981c-9.725-6.4-19.093-13.376-27.689-20.612 13.816-28.249 38.022-51.024 68.58-62.62 14.295 3.912 29.229 5.959 44.501 5.959 15.28 0 30.223-2.051 44.527-5.97 8.924 3.386 17.468 7.786 25.419 13.122 3.445 2.311 8.101 1.388 10.407-2.048 2.308-3.439 1.392-8.099-2.048-10.407-4.235-2.843-8.628-5.436-13.138-7.799 28.506-12.031 53.25-31.883 71.657-57.949 7.005 3.909 14.957 6.01 23.044 6.01h18.712c26.052 0 47.246-21.194 47.246-47.246v-55.078c0-26.051-21.194-47.246-47.246-47.246h-17.81l-22.612-91.876c-7.88-32.016-32.299-57.966-63.727-67.725l-46.122-14.318c-9.171-2.848-16.809-4.232-28.307-4.232-9.738 0-19.262 1.424-28.307 4.232l-46.121 14.319c-31.429 9.759-55.848 35.709-63.727 67.723l-1.287 5.226c-.99 4.022 1.468 8.085 5.49 9.075 4.023.988 8.085-1.468 9.075-5.49l1.286-5.225c6.63-26.94 27.173-48.776 53.61-56.984l46.121-14.319c15.057-4.675 32.171-4.827 47.72 0l46.121 14.319c26.437 8.208 46.979 30.044 53.61 56.984l20.147 81.86c-44.739-21.708-91.919-32.033-143.738-31.469-51.81-.551-98.996 9.763-143.738 31.469l11.674-47.431c.99-4.022-1.468-8.085-5.49-9.075-4.021-.987-8.085 1.468-9.075 5.49l-14.139 57.447h-17.81c-26.052.001-47.246 21.196-47.246 47.247v55.078c0 26.052 21.194 47.246 47.246 47.246h18.712c8.086 0 16.038-2.1 23.042-6.009 18.584 26.335 43.436 46.054 71.67 57.962-45.955 24.059-75.716 72.053-75.716 124.826 0 4.142 3.358 7.5 7.5 7.5h266.738v-.002c16.142-.002 30.326-10.471 34.864-25.589h47.706c4.54 15.121 18.696 25.59 34.797 25.59 19.313 0 35.441-16.936 35.441-36.42 0-2.887-.397-5.825-1.186-8.766zm-120.725-273.662h14.313c17.78 0 32.246 14.465 32.246 32.246v55.078c0 17.781-14.466 32.246-32.246 32.246h-18.712c-5.296 0-10.358-1.254-14.924-3.654 20.309-34.964 27.22-75.825 19.323-115.916zm-164.347-37.9c.055.001.109.001.164 0 51.408-.573 98.061 10.082 142.23 32.503l-18.34 17.738c-9.372 9.065-23.813 10.183-34.461 2.726-54.74-38.334-125.43-37.53-179.02 0-10.632 7.445-25.074 6.355-34.461-2.726l-18.341-17.739c44.167-22.421 90.798-33.08 142.229-32.502zm-159.784 157.47h-18.712c-17.78 0-32.246-14.465-32.246-32.246v-55.078c0-17.78 14.465-32.246 32.246-32.246h14.314c-7.893 40.08-.982 80.939 19.324 115.914-4.567 2.402-9.63 3.656-14.926 3.656zm9.457-111.931 16.01 15.484c14.579 14.101 36.996 15.783 53.494 4.23 48.46-33.936 112.275-34.69 161.812 0 16.472 11.535 38.893 9.889 53.493-4.23l16.01-15.485c15.211 92.331-56.269 176.972-150.411 176.972-94.752.001-165.525-85.173-150.408-176.971zm65.015 296.209h-40.25c.686-11.425 2.944-22.533 6.563-33.086 10.487 8.537 21.926 16.648 33.687 23.876zm170.771 0v-9.182c4.289-2.636 8.54-5.397 12.735-8.265.59 6.2 2.807 12.194 6.537 17.447zm165.358 0c-9.683 0-18.151-6.37-20.595-15.488l-1.217-4.543c-.879-3.279-3.851-5.56-7.245-5.56h-59.185c-3.395 0-6.366 2.28-7.245 5.56l-1.216 4.542c-2.443 9.119-10.942 15.487-20.669 15.487-13.322 0-23.222-13.13-19.692-26.303 2.983-11.133 11.215-41.857 14.256-53.204 4.09-15.26 23.044-20.581 34.476-9.833 1.391 1.308 3.229 2.036 5.138 2.036h49.091c1.909 0 3.747-.728 5.138-2.036 11.406-10.727 30.369-5.495 34.476 9.833l14.257 53.204c3.502 13.074-7.354 26.305-19.768 26.305z"/><path d="m390.019 431.693h-2.5v-2.5c0-4.142-3.357-7.5-7.5-7.5s-7.5 3.358-7.5 7.5v2.5h-2.5c-4.143 0-7.5 3.358-7.5 7.5s3.357 7.5 7.5 7.5h2.5v2.5c0 4.142 3.357 7.5 7.5 7.5s7.5-3.358 7.5-7.5v-2.5h2.5c4.143 0 7.5-3.358 7.5-7.5s-3.357-7.5-7.5-7.5z"/><path d="m451.625 418.054c-12.406 0-22.5 10.093-22.5 22.5s10.094 22.5 22.5 22.5 22.5-10.093 22.5-22.5-10.094-22.5-22.5-22.5zm0 30c-4.136 0-7.5-3.364-7.5-7.5s3.364-7.5 7.5-7.5 7.5 3.364 7.5 7.5-3.364 7.5-7.5 7.5z"/></g></g></svg>