<svg id="Capa_1" enable-background="new 0 0 512 512" height="512" viewBox="0 0 512 512" width="512" xmlns="http://www.w3.org/2000/svg"><g><g><g><g><g><g><path d="m137.848 415.539c-3.353 14.951 2.171 30.505 14.17 40.035l33.272 26.426v-138.211c-23.426 16.91-40.806 42.161-47.442 71.75z" fill="#d4d4ff"/><path d="m326.844 344.87v137.13l33.187-26.428c11.972-9.534 17.475-25.069 14.13-40.003-6.433-28.718-22.39-52.701-47.317-70.699z" fill="#efedff"/></g><g><path d="m326.844 344.87c-9.081-6.556-19.293-13.014-30.145-16.9-4.63-1.658-9.389-3.04-14.249-4.127l-76.52 27.956v90.201h130.769v-.014c0-31.872-3.639-65.856-9.855-97.116z" fill="#ff8e9e"/><path d="m256 320.925c-26.424 0-50.859 8.536-70.71 22.864-.003.002.003-.002 0 0-6.35 31.921-10.001 62.777-10.001 98.211h10.001 20.64c.059-52.61 31.451-97.878 76.519-118.152-8.551-1.914-17.414-2.923-26.449-2.923z" fill="#ea5b70"/></g><path d="m256.001 306.078-40.706 21.891c0 20.408 21.445 43.593 40.706 53.892 19.26-10.298 40.683-36.991 40.683-53.892z" fill="#ea5b70"/></g></g><g><path d="m93.109 119.408v137.759c3.374 11.432 7.538 22.364 11.216 32.281 7.567 20.406 25.514 35.25 47.032 38.519 13.177 2.001 26.397 3.62 39.644 4.86v-312.78c-44.786 18.048-80.346 54.192-97.892 99.361z" fill="#ea5b70"/><path d="m321.001 20.043v312.767c13.102-1.23 26.178-2.832 39.211-4.807 21.502-3.258 39.515-18.063 47.016-38.475 3.667-9.977 8.062-20.95 11.459-32.361v-137.74c-17.514-45.208-52.944-81.343-97.686-99.384z" fill="#ff8e9e"/><g><path d="m255.99 7.5c-22.99 0-44.915 4.458-64.988 12.547v312.779c21.619 2.024 43.31 3.036 65 3.033z" fill="#d4d4ff"/><path d="m255.99 7.5c-23.301 23.301-40.511 50.326-51.832 79.156v170.511c11.326 28.657 28.664 55.517 51.844 78.692 21.69-.003 43.381-1.019 65-3.049v-312.767c-20.058-8.088-41.986-12.543-65.012-12.543z" fill="#efedff"/></g></g><path d="m418.687 119.426c-67.886-31.74-142.174-42.664-214.53-32.77l-85.255 85.255 85.255 85.255c71.537 0 143.316-.001 214.53 0 7.339-24.653 12.431-51.36 12.431-74.538 0-22.283-4.833-43.594-12.431-63.202z" fill="#676fb2"/><path d="m204.158 86.656c-37.952 5.19-75.438 16.107-111.048 32.751-7.621 19.621-12.247 40.939-12.247 63.221 0 23.875 5.103 50.332 12.247 74.538h111.048c-21.606-54.645-21.481-115.826 0-170.51z" fill="#4c5699"/></g><g><g><path d="m330.913 474.912-11.801-44.043c-3.36-12.538-16.247-19.979-28.785-16.619-3.879 1.039-7.269 3.334-10.003 5.905h-24.322l-39.718 31.411 39.718 31.752h28.5l1.008 3.761c2.846 10.621 12.528 17.422 23.045 17.422 12.402 0 23.125-11.095 23.125-23.583-.001-1.979-.227-3.993-.767-6.006z" fill="#676fb2"/><path d="m256.001 420.155h-24.281c-2.735-2.571-6.124-4.865-10.003-5.905-12.538-3.36-25.426 4.081-28.785 16.619l-11.801 44.043c-3.946 14.728 7.086 29.588 22.298 29.588 10.541 0 20.255-6.78 23.106-17.422l1.008-3.761h28.459c-17.537-17.536-17.537-45.626-.001-63.162z" fill="#4c5699"/></g><g><circle cx="171.374" cy="461.286" fill="#d34459" r="29.873"/><circle cx="340.628" cy="461.286" fill="#ea5b70" r="29.873"/></g></g></g><path d="m426.663 100.108c-4.879-2.986-10.229-5.279-15.911-6.741-1.463-5.683-3.756-11.032-6.742-15.911-3.636-5.941-12.149-5.941-15.784 0-2.986 4.879-5.279 10.229-6.742 15.911-5.682 1.463-11.031 3.755-15.911 6.741-2.97 1.818-4.456 4.855-4.456 7.892s1.485 6.074 4.456 7.892c4.879 2.986 10.231 5.289 15.914 6.752 1.463 5.682 3.753 11.021 6.739 15.901 3.635 5.941 12.148 5.941 15.784 0 2.986-4.879 5.275-10.218 6.739-15.901 5.682-1.463 11.035-3.766 15.913-6.752 5.941-3.636 5.942-12.148.001-15.784z" fill="#efedff"/><path d="m428.215 123.66c.796-.443 1.584-.897 2.357-1.371 10.729-6.567 10.711-22.021-.001-28.579-4.345-2.659-8.966-4.798-13.784-6.384-1.586-4.819-3.727-9.442-6.386-13.786-6.627-10.828-22.115-10.56-28.578 0-2.659 4.345-4.799 8.967-6.386 13.787-3.329 1.099-6.572 2.47-9.701 4.094-12.334-3.618-24.754-6.62-37.242-8.999v-50.811c13.875 6.719 26.854 15.385 38.525 25.859 3.088 2.775 7.829 2.502 10.59-.57 2.761-3.08 2.511-7.83-.569-10.6-32.592-29.254-75.131-46.3-121.029-46.3h-.03c-76.754 0-143.111 47.805-169.87 116.689-23.529 60.48-11.291 114.73 11.181 175.36 8.54 23.06 28.83 39.66 52.93 43.33 9.536 1.449 19.124 2.695 28.743 3.751-13.676 10.243-25.214 23.122-33.948 38.025-2.095 3.574-.895 8.169 2.679 10.263 3.572 2.093 8.168.896 10.263-2.679 4.563-7.787 10.005-14.936 16.178-21.362-3.345 20.746-5.301 40.53-6.02 60.687-8.548.744-16.277 4.373-22.21 9.912-2.725-8.629-1.454-15.102.966-23.459 1.152-3.979-1.14-8.138-5.119-9.289-3.978-1.151-8.137 1.14-9.289 5.119-4.265 14.737-4.852 28.037 3.731 42.354-1.411 3.934-2.185 8.168-2.185 12.582 0 20.605 16.764 37.369 37.369 37.369 2.231 0 4.414-.208 6.538-.584 5.586 8.629 15.016 13.932 25.506 13.932 13.605 0 25.602-8.62 29.81-21.183h45.566c4.206 12.563 16.178 21.183 29.748 21.183 10.1 0 19.61-5.418 25.315-13.972 2.193.403 4.449.624 6.757.624 20.605 0 37.369-16.764 37.369-37.369 0-4.407-.772-8.637-2.18-12.566 6.261-10.412 8.337-22.857 5.664-34.789-6.748-30.12-23.697-55.606-49.459-74.709 9.811-1.065 19.591-2.328 29.316-3.8 24.18-3.67 44.46-20.26 52.93-43.311 21.63-58.863 34.621-108.987 13.955-168.448zm-58.744-17.147c12.035-7.365 17.471-4.289 19.271-11.274 1.26-4.89 3.236-9.556 5.876-13.868h.001c.673-1.102 2.246-1.213 2.99 0 2.64 4.313 4.616 8.979 5.874 13.867.682 2.646 2.748 4.712 5.394 5.394 4.887 1.258 9.552 3.234 13.865 5.873 1.168.714 1.169 2.277 0 2.991-4.3 2.633-9.025 4.638-13.868 5.887-2.645.682-4.71 2.746-5.392 5.392-1.257 4.878-3.233 9.541-5.874 13.856-.713 1.167-2.277 1.167-2.989 0-2.641-4.314-4.616-8.976-5.873-13.855-.681-2.646-2.747-4.712-5.393-5.394-4.869-1.253-9.535-3.233-13.87-5.887-1.179-.723-1.152-2.285-.012-2.982zm-113.49-91.513c19.834.005 39.274 3.529 57.515 10.241v54.628c-37.988-5.703-76.437-5.713-115 .036v-54.809c18.028-6.573 37.412-10.096 57.485-10.096zm-72.486 16.414v51.021c-25.843 4.879-51.12 12.343-75.52 22.301 16.996-32.559 43.595-57.977 75.52-73.322zm-72.144 255.426c-2.642-7.113-5.294-14.53-7.813-22.174h79.957v59.867c-10.383-1.096-20.731-2.421-31.015-3.983-18.709-2.84-34.469-15.76-41.129-33.71zm87.144 39.112v-61.286h115v61.271c-38.462 3.222-76.503 3.233-115 .015zm50 42.016c-8.671-6.779-16.925-15.811-21.653-25.22 7.222.299 14.442.492 21.653.568zm15-24.653c6.927-.075 13.861-.256 20.797-.538-4.777 8.685-12.486 17.882-20.797 24.848zm-53.239-1.446c6.083 17.816 22.588 34.776 38.239 44.33v26.455h-13.988c-17.146-13.697-41.618-5.242-48.24 14.363-1.044-.456-2.114-.862-3.206-1.223.847-25.532 3.742-50.426 9.004-77.582 3.638-2.481 7.431-4.757 11.364-6.82 2.275.171 4.551.329 6.827.477zm-61.247 119.414c0-12.334 10.035-22.369 22.369-22.369s22.369 10.035 22.369 22.369-10.035 22.369-22.369 22.369-22.369-10.035-22.369-22.369zm159.539 35.717c-7.432 0-13.929-4.878-15.801-11.863l-1.008-3.761c-.879-3.278-3.85-5.559-7.244-5.559h-56.959c-3.395 0-6.365 2.28-7.244 5.559l-1.008 3.762c-1.871 6.984-8.394 11.862-15.862 11.862-4.281 0-8.22-1.779-11.088-4.793 9.898-6.729 16.413-18.079 16.413-30.924 0-9.558-3.611-18.286-9.535-24.9l.957-3.572c2.855-10.649 16.447-16.554 26.408-7.191 1.391 1.308 3.228 2.035 5.137 2.035h48.604c1.909 0 3.746-.728 5.137-2.035 9.858-9.265 23.518-3.589 26.408 7.19l.949 3.543c-5.939 6.619-9.561 15.358-9.561 24.93 0 12.758 6.431 24.039 16.217 30.784-2.938 3.05-6.896 4.933-10.92 4.933zm32.072-13.348c-12.334 0-22.369-10.035-22.369-22.369s10.035-22.369 22.369-22.369 22.369 10.035 22.369 22.369-10.035 22.369-22.369 22.369zm26.217-66.444c1.258 5.616.973 11.401-.724 16.788-5.951-5.563-13.714-9.205-22.299-9.936-.778-19.585-2.794-39.891-5.938-59.904 14.588 14.896 24.426 32.807 28.961 53.052zm-46.827-68.139c4.891 25.333 7.933 51.677 8.864 76.747-1.059.352-2.099.746-3.114 1.188-6.612-19.552-31.056-28.07-48.236-14.35h-14.029v-26.484c15.991-9.998 31.515-28.265 37.749-44.281 2.194-.142 4.387-.294 6.579-.457 4.267 2.393 8.334 4.938 12.187 7.637zm39.071-28.479c-10.14 1.537-20.345 2.842-30.586 3.925v-59.849h79.521c-2.402 7.217-5.02 14.619-7.836 22.273-6.579 17.911-22.329 30.811-41.099 33.651zm53.661-70.924h-313.851c-12.471-43.217-15.512-82.367.138-124.718 78.88-36.111 168.814-44.688 255.131-21.219-1.831 6.985.954 14.558 7.494 18.559 4.357 2.668 8.979 4.811 13.788 6.396 1.585 4.813 3.724 9.431 6.382 13.775 6.57 10.732 22.024 10.709 28.579-.001 1.939-3.17 3.595-6.488 4.968-9.918 13.09 40.522 9.408 76.487-2.629 117.126z"/></g></svg>